# AST/ASF file generated using VICON BodyLanguage
# -----------------------------------------------
:version 1.10
:name VICON
:units
  mass 1.0
  length 0.45
  angle deg
:documentation
   .ast/.asf automatically generated from VICON data using
   VICON BodyBuilder and BodyLanguage model FoxedUp or BRILLIANT.MOD
:root
   order TX TY TZ RX RY RZ
   axis XYZ
   position 0 0 0  
   orientation 0 0 0 
:bonedata
  begin
     id 1 
     name lhipjoint
     direction 0.521689 -0.742065 0.420928 
     length 2.47002 
     axis 0 0 0  XYZ
  end
  begin
     id 2 
     name lfemur
     direction 0.34202 -0.939693 0  
     length 7.24654  
     axis 0 0 20  XYZ
    dof rx ry rz
    limits (-160.0 20.0)
           (-70.0 70.0)
           (-60.0 70.0)
  end
  begin
     id 3 
     name ltibia
     direction 0.34202 -0.939693 0   
     length 8.04849   
     axis 0 0 20   XYZ
    dof rx
    limits (-10.0 170.0)
  end
  begin
     id 4 
     name lfoot
     direction 0.0745411 -0.2048 0.975961   
     length 1.72367   
     axis -90 7.62852e-016 20   XYZ
    dof rx rz
    limits (-45.0 90.0)
           (-70.0 20.0)
  end
  begin
     id 5 
     name ltoes
     direction 1.53556e-011 -4.21901e-011 1   
     length 0.87311   
     axis -90 7.62852e-016 20   XYZ
    dof rx
    limits (-90.0 20.0)
  end
  begin
     id 6 
     name rhipjoint
     direction -0.52849 -0.738415 0.418857   
     length 2.48223  
     axis 0 0 0  XYZ 
  end
  begin
     id 7 
     name rfemur
     direction -0.34202 -0.939693 0   
     length 7.15571   
     axis 0 0 -20   XYZ
    dof rx ry rz
    limits (-160.0 20.0)
           (-70.0 70.0)
           (-70.0 60.0)
  end
  begin
     id 8 
     name rtibia
     direction -0.34202 -0.939693 0   
     length 7.81659   
     axis 0 0 -20   XYZ
    dof rx
    limits (-10.0 170.0)
 end
 begin
     id 9 
     name rfoot
     direction -0.0917348 -0.252039 0.963359   
     length 1.84382  
     axis -90 -7.62852e-016 -20   XYZ
    dof rx rz
    limits (-45.0 90.0)
           (-20.0 70.0)
  end
  begin
     id 10 
     name rtoes
     direction -1.53551e-011 -4.21879e-011 1   
     length 0.927771   
     axis -90 -7.62852e-016 -20   XYZ
    dof rx
    limits (-90.0 20.0)
  end
  begin
     id 11 
     name lowerback
     direction 0.00583058 0.999822 0.0179296   
     length 2.1429   
     axis 0 0 0   XYZ
    dof rx ry rz
    limits (-20.0 45.0)
           (-30.0 30.0)
           (-30.0 30.0)
  end
  begin
     id 12 
     name upperback
     direction -0.0137999 0.999752 -0.0175071   
     length 2.14252   
     axis 0 0 0   XYZ
    dof rx ry rz
    limits (-20.0 45.0)
           (-30.0 30.0)
           (-30.0 30.0)
  end
  begin
     id 13 
     name thorax
     direction -0.0158036 0.99955 -0.0254909   
     length 2.1383   
     axis 0 0 0   XYZ
    dof rx ry rz
    limits (-20.0 45.0)
           (-30.0 30.0)
           (-30.0 30.0)
  end
  begin
     id 14 
     name lowerneck
     direction -0.0101179 0.999403 -0.0330262   
     length 1.65808   
     axis 0 0 0   XYZ
    dof rx ry rz
    limits (-20.0 45.0)
           (-30.0 30.0)
           (-30.0 30.0)
  end
  begin
     id 15 
     name upperneck
     direction 0.0497734 0.995978 -0.074501   
     length 1.5897   
     axis 0 0 0   XYZ
    dof rx ry rz
    limits (-20.0 45.0)
           (-30.0 30.0)
           (-30.0 30.0)
  end
  begin
     id 16
     name head
     direction 0.0189524 0.999519 -0.0245438  
     length 1.74024  
     axis 0 0 0   XYZ
    dof rx ry rz
    limits (-20.0 45.0)
           (-30.0 30.0)
           (-30.0 30.0)
  end
  begin
     id 17 
     name lclavicle
     direction 0.945604 0.324422 0.0241537  
     length 3.59089  
     axis 0 0 0   XYZ
    dof ry rz
    limits (-20.0 10.0)
           (0.0 20.0)
  end
  begin
     id 18 
     name lhumerus
     direction 1 -4.48964e-011 -2.63524e-027   
     length 5.2391   
     axis 180 -30 -90   XYZ
    dof rx ry rz
    limits (-60.0 90.0)
           (-90.0 90.0)
           (-90.0 90.0)
  end
  begin
     id 19
     name lradius
     direction 1 -4.48969e-011 3.86978e-028   
     length 3.31467   
     axis 180 -30 -90   XYZ
    dof rx
    limits (-10.0 170.0)
  end
  begin
     id 20
     name lwrist
     direction 1 -4.48963e-011 7.20928e-028   
     length 1.65734   
     axis -5.52449e-016 90 90   XYZ
    dof ry
    limits (-180.0 0.0)
 end
  begin
     id 21 
     name lhand
     direction 1 -4.48964e-011 1.44186e-027   
     length 0.9659   
     axis -9.20027e-016 90 90   XYZ
    dof rx rz
    limits (-90.0 90.0)
           (-45.0 45.0)
  end
  begin
     id 22 
     name lfingers
     direction 1 -4.48965e-011 2.88371e-027   
     length 0.778733   
     axis -1.84005e-015 90 90   XYZ
    dof rx
    limits (0.0 90.0)
  end
  begin
     id 23
     name lthumb
     direction 0.707107 -6.34931e-011 0.707107   
     length 1.11811   
     axis -90 45 2.85299e-015   XYZ
    dof rx rz
    limits (-45.0 45.0)
           (-45.0 45.0)
  end
  begin
     id 24 
     name rclavicle
     direction -0.923762 0.370785 0.0958234   
     length 3.54196  
     axis 0 0 0   XYZ 
    dof ry rz
    limits (-10.0 20.0)
           (-20.0 0.0)
  end
  begin
     id 25 
     name rhumerus
     direction -1 -4.48966e-011 1.18702e-017  
     length 5.30252   
     axis 180 30 90   XYZ
    dof rx ry rz
    limits (-90.0 60.0)
           (-90.0 90.0)
           (-90.0 90.0)
  end
  begin
     id 26 
     name rradius
     direction -1 -4.48966e-011 4.46736e-027   
     length 3.67875   
     axis 180 30 90   XYZ
    dof rx
    limits (-10.0 170.0)
  end
  begin
     id 27 
     name rwrist
     direction -1 -4.48966e-011 7.20928e-028   
     length 1.83937   
     axis -5.52449e-016 -90 -90   XYZ
    dof ry
    limits (-180.0 0.0)
  end
  begin
     id 28
     name rhand
     direction -1 -4.48973e-011 1.44186e-027   
     length 0.594811   
     axis -9.20027e-016 -90 -90   XYZ
    dof rx rz
    limits (-90.0 90.0)
           (-45.0 45.0)
  end
  begin
     id 29
     name rfingers
     direction -1 -4.48963e-011 2.88371e-027   
     length 0.479552   
     axis -1.84005e-015 -90 -90   XYZ
    dof rx
    limits (0.0 90.0)
  end
  begin
     id 30
     name rthumb
     direction -0.707107 -6.34932e-011 0.707107   
     length 0.688544   
     axis -90 -45 -2.85299e-015   XYZ
    dof rx rz
    limits (-45.0 45.0)
           (-45.0 45.0)
  end
:hierarchy
  begin
    root lhipjoint rhipjoint lowerback
    lhipjoint lfemur
    lfemur ltibia
    ltibia lfoot
    lfoot ltoes
    rhipjoint rfemur
    rfemur rtibia
    rtibia rfoot
    rfoot rtoes
    lowerback upperback
    upperback thorax
    thorax lowerneck lclavicle rclavicle
    lowerneck upperneck
    upperneck head
    lclavicle lhumerus
    lhumerus lradius
    lradius lwrist
    lwrist lhand lthumb
    lhand lfingers
    rclavicle rhumerus
    rhumerus rradius
    rradius rwrist
    rwrist rhand rthumb
    rhand rfingers
  end

#!OML:ASF E:\acrobat2\Project_11_07_03\Capture day 1\Session 1\Acrobat.ASF
:FULLY-SPECIFIED
:DEGREES
756
root 4.15362 14.9813 16.5446 -44.2009 -84.0216 -286.656
lowerback 29.3516 4.6873 5.2483
upperback 15.7127 5.48512 -0.426496
thorax 2.33467 2.56891 -4.86156
lowerneck 0.912852 2.65073 -0.83692
upperneck -7.94865 2.82221 -9.46738
head -2.58549 1.69219 -3.02221
rclavicle -5.725e-014 -5.1684e-014
rhumerus 33.126 8.40704 -66.4973
rradius 19.8239
rwrist 2.66358
rhand -21.1609 -57.101
rfingers 7.12502
rthumb 5.21901 -87.0167
lclavicle -5.725e-014 -5.1684e-014
lhumerus -32.6069 -21.5973 32.8698
lradius 11.5451
lwrist 2.62079
lhand -42.2979 -24.2248
lfingers 7.12502
lthumb -15.1821 5.19825
rfemur -46.4916 -9.93486 -5.52729
rtibia 77.8391
rfoot -12.9405 7.77233
rtoes 4.61659
lfemur -71.0765 1.75918 -2.83867
ltibia 72.2622
lfoot -20.1858 -17.6958
ltoes 27.6548
757
root 4.04876 14.9279 16.8356 -52.8592 -84.5009 -278.603
lowerback 29.438 4.30833 5.12422
upperback 15.7928 4.93238 -0.907072
thorax 2.36428 2.30095 -5.19315
lowerneck 0.65488 2.86942 -0.813873
upperneck -8.30564 3.16367 -8.66369
head -2.64667 1.84556 -2.76179
rclavicle 6.36111e-014 -3.10104e-014
rhumerus 31.9787 -3.44047 -74.4954
rradius 15.2065
rwrist 14.4435
rhand -21.178 -55.5826
rfingers 7.12502
rthumb 5.20248 -85.4987
lclavicle 6.36111e-014 -3.10104e-014
lhumerus -30.1574 -24.7904 29.7113
lradius 13.4522
lwrist 6.28056
lhand -42.0746 -22.9729
lfingers 7.12502
lthumb -14.967 6.46622
rfemur -46.333 -11.772 -6.48281
rtibia 78.5211
rfoot -10.314 7.15546
rtoes 6.04156
lfemur -70.4303 2.38269 -4.57578
ltibia 73.9155
lfoot -18.7303 -21.8357
ltoes 40.6383
758
root 3.94925 14.8996 17.1054 -53.8006 -85.3729 -277.863
lowerback 29.4158 4.18677 5.44411
upperback 15.631 4.87123 -0.767804
thorax 2.19786 2.2721 -5.20963
lowerneck 0.290525 2.8241 -0.265015
upperneck -8.42997 3.14191 -8.37445
head -2.61688 1.80336 -2.75569
rclavicle 1.74931e-014 -1.59028e-015
rhumerus 28.5304 -6.79828 -73.0834
rradius 15.2853
rwrist 13.7958
rhand -19.9003 -57.0349
rfingers 7.12502
rthumb 6.43603 -86.9171
lclavicle 1.74931e-014 -1.59028e-015
lhumerus -26.2209 -27.7436 26.3556
lradius 15.1639
lwrist 7.72366
lhand -41.8713 -24.3215
lfingers 7.12502
lthumb -14.7712 5.13217
rfemur -46.5237 -13.4216 -6.34512
rtibia 79.1211
rfoot -7.87566 6.01115
rtoes 9.88647
lfemur -69.9917 3.00256 -5.30133
ltibia 74.4407
lfoot -17.9281 -24.3277
ltoes 45.957
759
root 3.83986 14.8906 17.3578 -61.0193 -86.0285 -270.795
lowerback 29.4275 3.95185 5.36247
upperback 15.4319 4.56852 -0.936424
thorax 1.92674 2.10942 -5.28567
lowerneck 0.08851 3.05031 -0.263711
upperneck -8.82739 3.4736 -7.76417
head -2.70409 1.95716 -2.56144
rclavicle -1.74931e-014 -3.73715e-014
rhumerus 26.1142 -12.019 -73.9877
rradius 14.5106
rwrist 15.4656
rhand -20.747 -56.8262
rfingers 7.12502
rthumb 5.61862 -86.7317
lclavicle -1.74931e-014 -3.73715e-014
lhumerus -22.6758 -31.374 23.0438
lradius 17.0135
lwrist 8.85903
lhand -42.0382 -23.6364
lfingers 7.12502
lthumb -14.932 5.8054
rfemur -47.126 -15.1608 -6.07748
rtibia 79.8817
rfoot -6.2659 3.71506
rtoes -3.41813
lfemur -69.2541 3.42934 -6.1281
ltibia 74.6708
lfoot -19.875 -24.8481
ltoes 44.6766
760
root 3.73632 14.903 17.6265 -65.7649 -86.328 -266.082
lowerback 29.3117 3.62996 4.95405
upperback 15.1786 4.10921 -0.708491
thorax 1.55206 1.8266 -4.69137
lowerneck 0.0827441 3.33951 -0.718551
upperneck -9.27661 3.83969 -7.52172
head -2.85038 2.1571 -2.41927
rclavicle -3.65764e-014 3.81667e-014
rhumerus 23.6867 -16.7331 -73.5662
rradius 14.0613
rwrist 17.6767
rhand -20.5868 -56.6285
rfingers 7.12502
rthumb 5.77325 -86.5298
lclavicle -3.65764e-014 3.81667e-014
lhumerus -18.9294 -33.4777 20.1563
lradius 18.4983
lwrist 8.56371
lhand -42.1074 -24.2214
lfingers 7.12502
lthumb -14.9986 5.21539
rfemur -47.5566 -17.1828 -6.4341
rtibia 80.4805
rfoot -4.41247 2.2561
rtoes -3.41408
lfemur -68.8054 2.91783 -6.92714
ltibia 75.0194
lfoot -23.2575 -23.9063
ltoes 39.6051
761
root 3.62945 14.9343 17.8675 -67.7929 -87.0938 -264.092
lowerback 29.502 2.99171 5.74276
upperback 14.7232 3.55883 -1.03339
thorax 0.976128 1.60063 -5.38367
lowerneck 0.0515853 3.62412 -0.641869
upperneck -9.66577 4.27285 -6.7288
head -2.97076 2.35426 -2.18766
rclavicle 2.22639e-014 4.25399e-014
rhumerus 20.3485 -19.4958 -72.5768
rradius 14.1188
rwrist 16.5802
rhand -21.851 -56.6006
rfingers 7.12502
rthumb 4.55264 -86.5317
lclavicle 2.22639e-014 4.25399e-014
lhumerus -14.731 -37.0405 16.2525
lradius 20.2551
lwrist 8.88307
lhand -42.9073 -23.7346
lfingers 7.12502
lthumb -15.7691 5.643
rfemur -47.9448 -18.8532 -6.08484
rtibia 80.8309
rfoot -2.92011 0.823586
rtoes -0.708756
lfemur -68.6086 2.64329 -7.0478
ltibia 75.7219
lfoot -26.6266 -21.9088
ltoes 31.4214
762
root 3.52235 14.9802 18.0955 -73.5743 -87.8853 -258.258
lowerback 29.6228 3.55231 6.05562
upperback 14.2636 4.42014 -0.706818
thorax 0.506867 2.01426 -5.44443
lowerneck -0.0581612 3.12886 1.45154
upperneck -9.71383 3.62863 -7.06979
head -2.95136 1.96302 -2.6599
rclavicle 4.77083e-015 -2.14687e-014
rhumerus 15.4894 -23.0151 -69.1185
rradius 14.617
rwrist 14.9871
rhand -22.4071 -56.2429
rfingers 7.12502
rthumb 4.01567 -86.1848
lclavicle 4.77083e-015 -2.14687e-014
lhumerus -6.82694 -39.4977 11.1165
lradius 21.9313
lwrist 10.0168
lhand -43.1217 -24.6081
lfingers 7.12502
lthumb -15.9755 4.75311
rfemur -48.5293 -20.1713 -5.55973
rtibia 81.2608
rfoot -1.98858 -0.440669
rtoes 3.47478
lfemur -68.7825 2.59422 -7.16154
ltibia 76.605
lfoot -27.5228 -21.1408
ltoes 29.5881
763
root 3.41508 15.0374 18.3203 -91.4363 -88.5178 -240.202
lowerback 28.8866 3.33517 6.17369
upperback 14.1218 4.17918 -0.568127
thorax 0.635737 1.90157 -5.25749
lowerneck 0.348876 3.28247 1.50058
upperneck -10.5464 3.79063 -7.04372
head -3.30535 2.0555 -2.70159
rclavicle -3.18055e-015 5.56597e-015
rhumerus 11.9931 -22.9799 -66.0552
rradius 14.7898
rwrist 13.3709
rhand -23.06 -56.2917
rfingers 7.12502
rthumb 3.38518 -86.2445
lclavicle -3.18055e-015 5.56597e-015
lhumerus -1.90757 -38.7023 8.00321
lradius 22.9415
lwrist 10.5488
lhand -43.5994 -25.6206
lfingers 7.12502
lthumb -16.4355 3.70319
rfemur -49.4493 -21.1163 -4.8345
rtibia 81.7462
rfoot -1.54846 -1.37856
rtoes 5.48298
lfemur -69.0291 2.61938 -7.30438
ltibia 77.3006
lfoot -25.8808 -22.3593
ltoes 36.7907
764
root 3.30156 15.1119 18.5371 -143.388 -88.7783 -188.101
lowerback 28.281 3.25918 6.36468
upperback 14.0097 4.12265 -0.319958
thorax 0.767499 1.87405 -5.04681
lowerneck 0.385608 3.40244 1.45961
upperneck -11.1477 3.90922 -7.07464
head -3.51585 2.12085 -2.72845
rclavicle -5.40694e-014 -2.42517e-014
rhumerus 8.92606 -23.4226 -63.3315
rradius 14.5695
rwrist 13.3493
rhand -23.4847 -56.3454
rfingers 7.12502
rthumb 2.975 -86.3044
lclavicle -5.40694e-014 -2.42517e-014
lhumerus 2.69038 -36.4346 6.06236
lradius 23.4966
lwrist 11.3288
lhand -42.2615 -28.1567
lfingers 7.12502
lthumb -15.1471 1.26896
rfemur -50.4379 -21.3287 -3.59843
rtibia 82.116
rfoot -1.76376 -1.77877
rtoes 6.21824
lfemur -68.7372 2.85276 -7.07015
ltibia 77.6152
lfoot -24.0012 -23.4876
ltoes 43.0755
